<?xml version="1.0" encoding="UTF-8" standalone="no"?>
<!DOCTYPE svg PUBLIC "-//W3C//DTD SVG 1.1//EN" "http://www.w3.org/Graphics/SVG/1.1/DTD/svg11.dtd">
<svg width="100%" height="100%" viewBox="0 0 498 505" version="1.1" xmlns="http://www.w3.org/2000/svg" xmlns:xlink="http://www.w3.org/1999/xlink" xml:space="preserve" xmlns:serif="http://www.serif.com/" style="fill-rule:evenodd;clip-rule:evenodd;stroke-linejoin:round;stroke-miterlimit:2;">
    <g transform="matrix(1,0,0,1,-4672,-99)">
        <g id="Logo-Only---Full-Color" serif:id="Logo Only - Full Color" transform="matrix(-5.55556,0,0,5.55556,5169.8,99.829)">
            <rect x="0" y="-0" width="89.577" height="90.637" style="fill:none;"/>
            <clipPath id="_clip1">
                <rect x="0" y="-0" width="89.577" height="90.637"/>
            </clipPath>
            <g clip-path="url(#_clip1)">
                <g id="Outer-Group" serif:id="Outer Group" transform="matrix(-1,0,0,1,325.418,-7.19546)">
                    <g id="layer1">
                        <g id="Outer-Group1" serif:id="Outer Group">
                            <path id="path150-9-3-3" d="M281.43,86.981L306.756,72.359L306.756,43.111L316.152,37.686L316.152,69.874C311.588,70.637 308.109,74.605 308.109,79.385C308.109,80.361 308.254,81.301 308.524,82.189L298.392,88.039L281.43,97.831L281.43,86.981" style="fill:rgb(107,134,164);"/>
                            <path id="path152-2-6-6" d="M254.505,43.118L254.505,72.359L279.83,86.981L279.83,97.832L262.869,88.039L252.737,82.189C253.006,81.301 253.152,80.361 253.152,79.385C253.152,74.605 249.672,70.637 245.109,69.874L245.109,37.579L254.505,43.118" style="fill:rgb(95,143,94);"/>
                            <path id="path154-0-7-0" d="M280.63,27.109L255.298,41.732L245.999,36.308L262.869,26.513L272.93,20.703C274.696,23.027 277.488,24.527 280.63,24.527C283.773,24.527 286.565,23.027 288.33,20.703L298.392,26.513L315.356,36.308L305.958,41.732L280.63,27.109" style="fill:rgb(163,126,61);"/>
                            <path id="path156-23-5-6" d="M276.428,34.543L284.833,34.543L284.833,44.57L297.482,44.57L297.482,52.975L284.833,52.975L284.833,80.007L276.428,80.007L276.428,52.975L263.778,52.975L263.778,44.57L276.428,44.57L276.428,34.543" style="fill:rgb(156,75,77);"/>
                            <path id="path158-7-3-2" d="M280.63,7.195C276.397,7.195 272.964,10.627 272.964,14.862C272.964,19.095 276.397,22.527 280.63,22.527C284.864,22.527 288.297,19.095 288.297,14.862C288.297,10.627 284.864,7.195 280.63,7.195" style="fill:rgb(163,126,61);"/>
                            <path id="path160-5-5-6" d="M317.753,71.718C313.518,71.718 310.086,75.151 310.086,79.385C310.086,83.618 313.518,87.051 317.753,87.051C321.986,87.051 325.418,83.618 325.418,79.385C325.418,75.151 321.986,71.718 317.753,71.718" style="fill:rgb(107,134,164);"/>
                            <path id="path162-9-6-1" d="M243.508,71.718C239.274,71.718 235.841,75.151 235.841,79.385C235.841,83.618 239.274,87.051 243.508,87.051C247.742,87.051 251.175,83.618 251.175,79.385C251.175,75.151 247.742,71.718 243.508,71.718" style="fill:rgb(95,143,94);"/>
                        </g>
                    </g>
                </g>
            </g>
        </g>
    </g>
</svg>
